<svg xmlns="http://www.w3.org/2000/svg" viewBox="0 0 142 60">
	<polygon points="27.32 60 0 45.67 0 14.33 27.32 0 27.32 6.6 9.32 19.66 9.32 40.34 27.32 53.4 27.32 60" style="fill:#051440" />
	<polygon points="27.32 60 27.32 53.4 45.5 40.34 45.5 19.66 27.32 6.6 27.32 0 54.83 14.33 54.83 45.67 27.32 60" style="fill:#ed2e38" />
	<path d="M64.82,16.43l2.28,7,2.27-7h3.24v10.1H70.14V24.17l.24-4.83-2.46,7.19H66.29l-2.48-7.19.24,4.83v2.36H61.59V16.43Z" style="fill:#051440" />
	<path d="M80.85,24.64H77.47l-.59,1.89H74.26L78,16.43h2.31l3.77,10.1H81.44Zm-2.79-1.88h2.2l-1.1-3.5Z" style="fill:#051440" />
	<path d="M89.37,23H88v3.57H85.57V16.43h4a4.52,4.52,0,0,1,2.84.8,2.69,2.69,0,0,1,1,2.25A3.21,3.21,0,0,1,93,21.22a3,3,0,0,1-1.35,1.13l2.13,4.07v.11H91.17ZM88,21.08h1.56a1.43,1.43,0,0,0,1.06-.36,1.42,1.42,0,0,0,.35-1,1.28,1.28,0,0,0-1.41-1.4H88Z" style="fill:#051440" />
	<path d="M104.34,21.69a5.78,5.78,0,0,1-.47,2.44,4.21,4.21,0,0,1-1.29,1.68l1.65,1.29-1.53,1.27-2.19-1.75a4.32,4.32,0,0,1-.62.05,4.42,4.42,0,0,1-2.31-.6A4.07,4.07,0,0,1,96,24.36a5.64,5.64,0,0,1-.59-2.55v-.53A5.84,5.84,0,0,1,96,18.66a4.05,4.05,0,0,1,1.57-1.75,4.7,4.7,0,0,1,4.65,0,4.1,4.1,0,0,1,1.58,1.74,5.63,5.63,0,0,1,.57,2.58Zm-2.5-.43a4.19,4.19,0,0,0-.51-2.28,1.76,1.76,0,0,0-2.92,0,4.27,4.27,0,0,0-.49,2.25v.47A4.34,4.34,0,0,0,98.41,24a1.65,1.65,0,0,0,1.48.8,1.61,1.61,0,0,0,1.44-.79,4.12,4.12,0,0,0,.51-2.25Z" style="fill:#051440" />
	<path d="M114.35,16.43V23a3.75,3.75,0,0,1-.48,1.94,3.15,3.15,0,0,1-1.39,1.26,5,5,0,0,1-2.14.43,4.27,4.27,0,0,1-2.94-1,3.4,3.4,0,0,1-1.09-2.62V16.43h2.48v6.71c0,1.1.54,1.65,1.55,1.65a1.55,1.55,0,0,0,1.16-.41,1.94,1.94,0,0,0,.39-1.35v-6.6Z" style="fill:#051440" />
	<path d="M123,22.24h-3.87v2.41h4.57v1.88h-7V16.43h7.05v1.88h-4.59v2.13H123Z" style="fill:#051440" />
	<path d="M130.68,23.84a1,1,0,0,0-.38-.83,5.1,5.1,0,0,0-1.35-.62,12.68,12.68,0,0,1-1.57-.61,3,3,0,0,1-2-2.65,2.35,2.35,0,0,1,.49-1.48,3.22,3.22,0,0,1,1.4-1,5.49,5.49,0,0,1,2-.36,4.78,4.78,0,0,1,2,.39,3.19,3.19,0,0,1,1.36,1.11,2.87,2.87,0,0,1,.48,1.64h-2.45a1.21,1.21,0,0,0-.39-1,1.47,1.47,0,0,0-1-.34,1.69,1.69,0,0,0-1,.29.85.85,0,0,0-.38.73.88.88,0,0,0,.42.7,5.42,5.42,0,0,0,1.48.66,8.76,8.76,0,0,1,1.73.72,2.89,2.89,0,0,1,1.66,2.6,2.46,2.46,0,0,1-1,2.08,4.56,4.56,0,0,1-2.77.76,5.61,5.61,0,0,1-2.25-.44A3.43,3.43,0,0,1,125.6,25a3.12,3.12,0,0,1-.51-1.77h2.47a1.55,1.55,0,0,0,.42,1.2,2,2,0,0,0,1.38.39,1.59,1.59,0,0,0,1-.26A.87.87,0,0,0,130.68,23.84Z" style="fill:#051440" />
	<path d="M61.59,43.57V33.47h3.29a4.82,4.82,0,0,1,2.43.61A4.28,4.28,0,0,1,69,35.79a5.12,5.12,0,0,1,.61,2.48v.46A5.2,5.2,0,0,1,69,41.22a4.38,4.38,0,0,1-1.67,1.72,4.88,4.88,0,0,1-2.4.63Zm2.46-8.22v6.34h.86A1.89,1.89,0,0,0,66.53,41a3.63,3.63,0,0,0,.57-2.22V38.3a3.6,3.6,0,0,0-.57-2.21,2,2,0,0,0-1.65-.74Z" style="fill:#051440" />
	<path d="M78,39.28H74.08v2.41h4.57v1.88h-7V33.47h7v1.88H74.08v2.13H78Z" style="fill:#051440" />
	<path d="M91.15,39.54h-4v4H84.72V33.47h6.83v1.88H87.18v2.32h4Z" style="fill:#051440" />
	<path d="M97.11,40H95.78v3.57H93.32V33.47h4a4.54,4.54,0,0,1,2.84.8,2.69,2.69,0,0,1,1,2.25,3.21,3.21,0,0,1-.43,1.74,3.06,3.06,0,0,1-1.35,1.13l2.13,4.07v.11H98.91Zm-1.33-1.88h1.56a1.41,1.41,0,0,0,1-.36,1.4,1.4,0,0,0-1-2.42H95.78Z" style="fill:#051440" />
	<path d="M109.23,41.68h-3.37l-.59,1.89h-2.63l3.74-10.1h2.32l3.77,10.1h-2.64Zm-2.78-1.88h2.19l-1.1-3.5Z" style="fill:#051440" />
	<path d="M122.48,43.57H120l-3.62-6.29v6.29H114V33.47h2.46L120,39.75V33.47h2.45Z" style="fill:#051440" />
	<path d="M133,40.15a3.64,3.64,0,0,1-.57,1.86A3.38,3.38,0,0,1,131,43.26a5,5,0,0,1-2.17.44,4,4,0,0,1-3.16-1.29,5.29,5.29,0,0,1-1.16-3.66v-.5a6,6,0,0,1,.52-2.6,4,4,0,0,1,1.5-1.72,4.31,4.31,0,0,1,2.28-.6,4.45,4.45,0,0,1,3,1A3.88,3.88,0,0,1,133.07,37h-2.46a1.79,1.79,0,0,0-.47-1.33,2,2,0,0,0-1.34-.4,1.48,1.48,0,0,0-1.35.68,4.34,4.34,0,0,0-.45,2.17v.72a4.8,4.8,0,0,0,.41,2.3,1.5,1.5,0,0,0,1.41.7,1.87,1.87,0,0,0,1.3-.4,1.66,1.66,0,0,0,.48-1.25Z" style="fill:#051440" />
	<path d="M141.28,39.28h-3.86v2.41H142v1.88h-7V33.47H142v1.88h-4.58v2.13h3.86Z" style="fill:#051440" />
</svg>